# xmcd CD database file
#
# Track frame offsets:
#	150
#	35551
#	73442
#
# Disc length: 4242 seconds
#
# Revision: 0
# Processed by: cddbd v1.5.2PL0 Copyright (c) Steve Scherf et al.
# Submitted via: Feurio! 1.68 - http://www.feurio.com
#
DISCID=2a109003
DTITLE=Albert Collins, Stevie Ray Vaughan and Jeff Healy   07-27-85 - Alberts 
DTITLE=Hall   Toronto, ON   07-27-85
DYEAR=1900
DGENRE=
TTITLE0=Albert Collins, Stevie Ray Vaughan and Jeff Healy - Cleo's Thing
TTITLE1=Albert Collins, Stevie Ray Vaughan and Jeff Healy - Hideaway
TTITLE2=Albert Collins, Stevie Ray Vaughan and Jeff Healy - hour long jam
EXTD=
EXTT0=
EXTT1=
EXTT2=
PLAYORDER=
